<?xml version="1.0" encoding="utf-8"?>
<!-- Generator: Adobe Illustrator 19.0.0, SVG Export Plug-In . SVG Version: 6.00 Build 0)  -->
<svg version="1.1" id="Layer_1" xmlns="http://www.w3.org/2000/svg" xmlns:xlink="http://www.w3.org/1999/xlink" x="0px" y="0px"
	 viewBox="100 -100 400 400" style="enable-background:new 100 -100 400 400;" xml:space="preserve">
<style type="text/css">
	.st0{fill:#6EBE45;}
	.st1{fill:#FFFFFF;}
</style>
<rect x="100" y="-100" class="st0" width="400" height="400"/>
<path class="st1" d="M295.2-38.2c3.2,0,6.3,0,9.5,0c0.2,0,0.4,0.1,0.6,0.1c5,0.3,10,0.9,14.9,2c19.3,4.3,35.7,13.6,49.2,28
	c15.3,16.3,23.8,35.6,25.6,57.9c0.1,0.9,0.2,1.8,0.3,2.9c0,3.1,0,6.2,0,9.3c0,0.2-0.1,0.3-0.1,0.5c-0.2,4.8-0.8,9.6-1.8,14.3
	c-3.8,18-12.1,33.6-25,46.7c-9.2,9.5-20,16.7-32.3,21.7c-12.1,4.9-24.8,7.2-38,7c-6.5-0.1-13.1-0.8-19.4-2.2
	c-13.8-3.1-26.3-9-37.5-17.8c-0.1-0.1-0.3-0.2-0.6-0.4c0,0.5,0,0.9,0,1.3c0,36.5,0,73.1,0,109.7c0,0.4,0,0.8-0.1,1.1
	c-11.9,0-23.9,0-35.8,0c0-0.3-0.1-0.6-0.1-0.8c0-49.1,0-98.3,0-147.4c0-0.3,0-0.5,0-0.8c0.2-0.1,0.3-0.1,0.4-0.1
	c7-1.4,14.2-2.8,21.2-4.2c6.8-1.3,13.7-2.7,20.6-4c0.5-0.1,0.8-0.2,1.2,0.4c3.7,6.6,8.6,12.4,14.5,17.1c10.2,8.3,21.9,12.8,35,13.3
	c10.3,0.4,20.1-1.8,29.3-6.6c11.4-5.9,20-14.8,25.8-26.2c0.3-0.6,0.3-1.2,0.5-1.9c-5.6,1.1-11,2.1-16.3,3.2
	c-9.5,1.8-19,3.7-28.4,5.5c-0.4,0.1-0.6,0-0.9-0.3c-8.4-9.7-16.8-19.4-25.3-29c-0.4-0.4,0.3-2.7,0.4-3.2c1.2-3.6,1.8-5.3,3.1-9
	c2.9-8.5,5.8-16.9,8.7-25.4c0.2-0.4,0.3-0.7,0.9-0.8c3-0.5,5.9-1.1,8.8-1.7c10.4-2,20.9-4.1,31.3-6.1c1.4-0.3,2.9-0.6,4.4-0.9
	c-0.4-0.6-0.8-1-1.1-1.5c-0.2-0.2-0.4-0.4-0.6-0.6C324.3,1.3,308.4-3.4,290.4-0.7c-13.4,1.9-24.9,8-34.2,17.9
	c-8.8,9.4-13.9,20.5-15.5,33.2c-0.1,0.6-0.3,0.8-0.8,0.9c-10.8,2.1-21.6,4.2-32.5,6.3c-0.9,0.2-1.8,0.3-2.9,0.5c0-0.4,0-0.7,0-0.9
	c0.2-3.7,0.3-7.2,0.7-10.9c0.9-8.5,3.1-16.6,6.2-24.6c6.1-15.2,15.6-28,28.3-38.3c15.3-12.5,32.8-19.5,52.4-21
	C293.3-38,294.2-38.1,295.2-38.2z"/>
</svg>
