<?xml version="1.0" encoding="utf-8"?>
<!-- Generator: Adobe Illustrator 19.1.0, SVG Export Plug-In . SVG Version: 6.00 Build 0)  -->
<svg version="1.1" id="Layer_1" xmlns="http://www.w3.org/2000/svg" xmlns:xlink="http://www.w3.org/1999/xlink" x="0px" y="0px"
	 viewBox="0 0 651.2 295.1" style="enable-background:new 0 0 651.2 295.1;" xml:space="preserve">
<style type="text/css">
	.st0{fill:#6EBE45;}
	.st1{fill:none;stroke:#6EBE45;stroke-width:3;stroke-miterlimit:10;}
	.st2{fill:#2D4720;}
</style>
<g>
	<path class="st0" d="M206.1,82.8c8.7-9.6,34.2-17.1,50.1-17.1l-6.3,25.8c-24,0-43.8,18.3-43.8,41.4v73.2h-25.8V68.7h25.8V82.8z"/>
	<path class="st0" d="M408.6,137.4c0,19.2-7.5,37.2-21.3,51c-13.5,13.5-31.5,21-50.7,21s-37.2-7.5-51-21c-13.5-13.8-21-31.8-21-51
		s7.5-37.2,21-51c13.8-13.5,31.8-20.7,51-20.7s37.2,7.2,50.7,20.7C401.1,100.2,408.6,118.2,408.6,137.4z M382.8,137.4
		c0-25.5-20.7-45.9-46.2-45.9c-25.5,0-46.2,20.4-46.2,45.9c0,25.5,20.7,46.2,46.2,46.2C362.1,183.6,382.8,162.9,382.8,137.4z"/>
	<path class="st0" d="M435.3,68.7h25.8v149.7c0,17.4-6.6,33.3-18.6,45.3c-9.3,8.7-23.1,15.9-35.4,18.9l-3.6-25.5
		c7.8-1.8,15-5.7,21-11.1l0.3-0.3c6.3-6.3,9.9-15,10.5-24V68.7z M431.1,29.4c0-9.3,7.5-16.8,17.1-16.8c9.3,0,16.8,7.5,16.8,16.8
		c0,9.3-7.5,17.1-16.8,17.1C438.6,46.5,431.1,38.7,431.1,29.4z"/>
	<path class="st1" d="M581.1,133.5l60.9,72.6h-33.6L564,153.6l-44.1,52.5h-33.6l60.9-72.6l-54.3-64.8h33.9l37.2,44.7l37.5-44.7h33.6
		L581.1,133.5z"/>
</g>
<path class="st0" d="M77.3,61.1c2.4,0,4.9,0,7.3,0c0.1,0,0.3,0.1,0.4,0.1c3.9,0.2,7.7,0.7,11.5,1.6c14.8,3.3,27.5,10.4,37.9,21.5
	c11.8,12.6,18.3,27.5,19.8,44.6c0.1,0.7,0.1,1.5,0.2,2.2c0,2.4,0,4.8,0,7.2c0,0.1-0.1,0.3-0.1,0.4c-0.2,3.7-0.7,7.4-1.4,11
	c-2.9,13.9-9.4,25.9-19.2,36.1c-7.1,7.3-15.4,12.9-24.9,16.7c-9.4,3.8-19.1,5.6-29.2,5.4c-5-0.1-10-0.6-15-1.8
	c-10.6-2.4-20.3-6.9-28.8-13.7c-0.1-0.1-0.2-0.2-0.5-0.3c0,0.4,0,0.7,0,1c0,28.2,0,56.3,0,84.5c0,0.3,0,0.6-0.1,0.9
	c-9.2,0-18.4,0-27.6,0c0-0.2-0.1-0.4-0.1-0.6c0-37.9,0-75.7,0-113.6c0-0.2,0-0.4,0-0.6c0.2,0,0.3-0.1,0.3-0.1
	c5.5-1.1,10.9-2.1,16.4-3.2c5.3-1,10.6-2.1,15.9-3.1c0.4-0.1,0.7-0.2,0.9,0.3c2.9,5.1,6.6,9.5,11.1,13.2c7.9,6.3,16.9,9.8,27,10.2
	c8,0.3,15.5-1.4,22.5-5.1c8.2-4.2,14.4-10.4,18.9-18.3c0.4-0.6,0.4-1.5-0.1-2.1c-0.7-0.9-1.5-0.8-1.8-0.7c-3.1,0.6-6.2,1.2-9.3,1.8
	c-7.3,1.4-13,2.5-20.3,4c-1.2,0.2-2.4-0.1-3.2-1c-6.5-7.5-11.1-12.8-17.6-20.2c-0.6-0.8-0.9-2-0.5-3.2c1-2.8,6.4-19,8.7-25.6
	c0.4-0.9,1-1.5,2.2-1.9c2.3-0.4,3.4-0.7,5.6-1.1c8.1-1.6,16.1-3.2,24.2-4.7c0.7-0.1,1.3-0.6,1.5-1.4c0.1-0.5,0.1-1.4-0.7-2
	c-10.5-8-22.3-11.5-35.6-9.5c-10.3,1.5-19.2,6.2-26.3,13.8c-6.8,7.2-10.7,15.8-12,25.6c-0.1,0.4-0.2,0.6-0.6,0.7
	c-8.3,1.6-16.7,3.2-25,4.9c-0.7,0.1-1.4,0.3-2.2,0.4c0-0.3,0-0.5,0-0.7c0.2-2.8,0.2-5.6,0.5-8.4c0.7-6.5,2.3-12.9,4.8-18.9
	c4.8-11.7,12-21.6,21.8-29.5C46.6,68,60,62.6,75.2,61.4C75.9,61.3,76.6,61.2,77.3,61.1z"/>
<path class="st2" d="M80.7,163"/>
</svg>
